<svg xmlns="http://www.w3.org/2000/svg" xmlns:xlink="http://www.w3.org/1999/xlink" xml:space="preserve" baseProfile="tiny-ps" overflow="visible" version="1.2" viewBox="0 0 512 512"><switch><g><ellipse fill="#EE1E4F" cx="172.7" cy="282.2" rx="14.6" ry="14.7"/><path d="M202 315.2c-18.1 16.4-45.9 14.8-62.1-3.5-16.2-18.3-14.7-46.4 3.5-62.7s45.9-14.8 62.1 3.5c7.8 8.8 11.8 20.3 11.1 32.1-.6 11.8-5.8 22.8-14.6 30.6zm-47.8-53.9c-11.4 10.3-12.4 28-2.2 39.5s27.8 12.5 39.2 2.2c11.4-10.3 12.4-28 2.2-39.5s-27.8-12.5-39.2-2.2z" fill="#0AA6D8"/><image xlink:href="FFF654C2BAC36800.png" width="365" height="245" transform="matrix(.24 0 0 .24 129.12 267.84)"/><image xlink:href="FFF654C2BAC36801.png" width="365" height="119" transform="matrix(.24 0 0 .24 129.12 267.84)"/><image xlink:href="FFF654C2BAC36807.png" width="125" height="174" transform="matrix(.24 0 0 .24 128.64 250.08)"/><path d="M61.1 302.1c0 1.5-.6 2.9-1.5 4-1 1.2-2.6 1.9-4.2 1.8-1.1 0-2.2-.3-3.2-1-.9-.6-1.7-1.6-2-2.6l-2-5.5H26.6l-2 5.5c-.4 1.1-1.1 2-2.1 2.6-1 .6-2.1 1-3.2 1-1.6.1-3.1-.6-4.1-1.8-1-1.1-1.5-2.5-1.5-4 0-.7.1-1.4.4-2.1l14.7-38.2c.6-1.7 1.8-3.2 3.3-4.2 1.5-1 3.2-1.6 4.9-1.6 1.9-.2 3.8.3 5.5 1.3 1.7 1 3 2.5 3.7 4.4L60.7 300c.3.7.4 1.4.4 2.1zm-15.8-12.8-7.9-21.9-7.9 21.9h15.8zm75.9 17c-1 1-2.4 1.6-3.9 1.6-1.4 0-2.8-.6-3.8-1.6s-1.6-2.4-1.6-3.8v-30.6l-13.6 34c-.3.6-.7 1.1-1.2 1.4-.5.4-1.2.6-1.8.6-.6 0-1.2-.2-1.7-.6-.5-.4-.9-.8-1.1-1.4l-13.6-34v30.7c0 1.4-.6 2.8-1.6 3.8s-2.4 1.6-3.8 1.6c-2.9 0-5.3-2.4-5.3-5.3v-39.8c0-3.4 2.7-6.1 6-6.1 2.2-.3 4.5-.1 6.6.6 2 .7 3.4 2.1 4.3 4.3l10.3 25.7 10.3-25.7c.6-1.5 1.6-2.7 2.9-3.6 1.3-.9 2.9-1.4 4.5-1.4 1.2-.2 2.4-.2 3.5-.1s2.2.5 3.1 1c2 1 3.1 3 3 5.2v39.8c.1 1.3-.5 2.7-1.5 3.7zm139.6-44.8c0 1.3-.5 2.5-1.3 3.3-.8.9-2 1.4-3.2 1.4h-10.5v36.3c0 1.4-.6 2.8-1.6 3.8s-2.4 1.6-3.9 1.6c-1.4 0-2.8-.6-3.8-1.6s-1.6-2.4-1.6-3.8v-36.3h-10.5c-1.3 0-2.5-.5-3.3-1.4-.9-.9-1.4-2.2-1.3-3.5 0-1.2.5-2.4 1.3-3.3.9-.9 2.1-1.4 3.3-1.4h31.9c1.2 0 2.4.5 3.2 1.4.8 1 1.3 2.2 1.3 3.5zm46 40.6c0 1.5-.6 2.9-1.5 4-1 1.2-2.6 1.9-4.2 1.8-1.1 0-2.2-.3-3.2-1-.9-.6-1.7-1.6-2-2.6l-2-5.5h-21.6l-2 5.5c-.4 1.1-1.1 2-2.1 2.6-1 .6-2.1 1-3.2 1-1.6.1-3.1-.6-4.1-1.8-1-1.1-1.5-2.5-1.5-4 0-.7.1-1.4.4-2.1l14.7-38.2c.6-1.7 1.8-3.2 3.3-4.2 1.5-1 3.2-1.6 4.9-1.6 1.9-.2 3.8.3 5.5 1.3 1.7 1 3 2.5 3.7 4.4l14.6 38.2c.1.8.3 1.5.3 2.2zm-15.9-12.8-7.9-21.9-7.9 21.9h15.8zm63.4-16.3c0 2-.3 4-.9 5.9-1.1 3.1-3.2 5.8-6.1 7.5-1.2.8-2.6 1.3-4 1.6l6.9 11.9c1.1 2 .8 4.6-.8 6.3-1 1.1-2.4 1.7-3.8 1.7-.9 0-1.8-.2-2.6-.7-.8-.5-1.5-1.2-2-2l-8.6-15.8h-7.8v13.2c0 1.4-.6 2.8-1.6 3.8s-2.4 1.6-3.8 1.6c-2.9 0-5.3-2.4-5.3-5.3v-39.8c0-3.4 2.7-6.1 6-6.1h17.5c2.4 0 4.8.4 7 1.2 4 1.5 7.1 4.6 8.7 8.6.8 2 1.2 4.2 1.2 6.4zm-18.4-6.8h-11.3v13.7h11.2c2 .1 3.9-.6 5.4-1.8 1.4-1.2 2.2-2.9 2.2-5s-.7-3.8-2.2-5c-1.5-1.3-3.4-2-5.3-1.9zm70.4 34c-1.3 1.8-3 3.4-5 4.5-2.1 1.3-4.5 2.2-6.9 2.8-2.5.6-5.1 1-7.7 1-3.5 0-7.1-.6-10.4-1.9-3.2-1.2-6-3-8.5-5.3s-4.4-5.1-5.8-8.3c-2.8-7-2.8-14.8 0-21.8 1.3-3.1 3.3-6 5.8-8.3 2.5-2.3 5.4-4.1 8.5-5.3 3.3-1.2 6.8-1.8 10.4-1.8 4.1 0 7.6.7 10.5 2.1 2.8 1.3 5.3 3.1 7.4 5.3.4.5.7 1 .9 1.5.2.5.3 1.1.3 1.7 0 1.3-.6 2.6-1.5 3.4-.9.9-2.2 1.4-3.5 1.4-1.4 0-2.7-.5-3.6-1.5-1.4-1.4-3.1-2.5-4.9-3.3-1.8-.8-3.7-1.2-5.6-1.2-2.2 0-4.3.4-6.3 1.3-1.9.8-3.6 2-5 3.5s-2.5 3.3-3.3 5.3c-.8 2.1-1.2 4.4-1.2 6.6 0 2.3.4 4.5 1.2 6.7.7 2 1.8 3.8 3.3 5.3 1.4 1.5 3.1 2.7 5 3.5 2 .8 4.1 1.3 6.3 1.3 1.1 0 2.2-.1 3.2-.3 1-.2 2-.5 3-.9.9-.3 1.8-.7 2.6-1.3.7-.4 1.3-.9 1.9-1.4v-6.1h-9.1c-1.2 0-2.4-.5-3.3-1.4-.9-.9-1.4-2.2-1.3-3.5 0-1.3.5-2.5 1.3-3.3.9-.9 2-1.4 3.3-1.4h13.8c3.3 0 6 2.7 6 6.1v8.6c.2 2.4-.5 4.6-1.8 6.4zm46.5 2.4c0 1.3-.5 2.5-1.3 3.5-.8.9-2 1.4-3.2 1.4h-25.4c-3.3 0-6-2.7-6-6.1v-38.6c0-3.4 2.7-6.1 6-6.1h25.4c1.2 0 2.4.5 3.2 1.4.9.9 1.4 2.1 1.3 3.4 0 1.3-.5 2.5-1.3 3.3-.8.9-2 1.4-3.2 1.4h-20.8v10.7h20.2c1.2 0 2.4.5 3.2 1.4.9.9 1.4 2.1 1.3 3.4 0 1.3-.5 2.5-1.3 3.4-.9.9-2 1.4-3.2 1.4h-20.2V298h20.8c2.5-.1 4.5 2 4.5 4.6zm45.6-41.1c0 1.3-.5 2.5-1.3 3.3-.9.9-2 1.4-3.2 1.4h-10.5v36.3c0 1.4-.6 2.8-1.6 3.8s-2.4 1.6-3.9 1.6c-1.4 0-2.8-.6-3.8-1.6s-1.6-2.4-1.6-3.8v-36.3H462c-1.3 0-2.5-.5-3.3-1.4-.9-.9-1.4-2.2-1.3-3.5 0-1.2.5-2.4 1.3-3.3.9-.9 2.1-1.4 3.3-1.4h31.9c1.2 0 2.4.5 3.2 1.4.8 1 1.3 2.2 1.3 3.5z" fill="#EE1E4F"/></g></switch></svg>